<svg width="32" height="32" viewBox="0 0 32 32" fill="none" xmlns="http://www.w3.org/2000/svg">
<path fill-rule="evenodd" clip-rule="evenodd" d="M16 29.3333C23.3638 29.3333 29.3334 23.3638 29.3334 16C29.3334 8.63621 23.3638 2.66667 16 2.66667C8.63622 2.66667 2.66669 8.63621 2.66669 16C2.66669 23.3638 8.63622 29.3333 16 29.3333ZM16 9.33334C16.7364 9.33334 17.3334 9.93029 17.3334 10.6667V17.3333C17.3334 18.0697 16.7364 18.6667 16 18.6667C15.2636 18.6667 14.6667 18.0697 14.6667 17.3333V10.6667C14.6667 9.93029 15.2636 9.33334 16 9.33334ZM17.3334 21.3333C17.3334 22.0697 16.7364 22.6667 16 22.6667C15.2636 22.6667 14.6667 22.0697 14.6667 21.3333C14.6667 20.597 15.2636 20 16 20C16.7364 20 17.3334 20.597 17.3334 21.3333Z" fill="#CC3123"/>
</svg>
