<svg width="32" height="32" viewBox="0 0 32 32" fill="none" xmlns="http://www.w3.org/2000/svg">
<path fill-rule="evenodd" clip-rule="evenodd" d="M2.66669 16C2.66669 23.3638 8.63622 29.3333 16 29.3333C23.3638 29.3333 29.3334 23.3638 29.3334 16C29.3334 8.63619 23.3638 2.66666 16 2.66666C8.63622 2.66666 2.66669 8.63619 2.66669 16ZM22.1016 12.6402C22.4551 12.2159 22.3978 11.5853 21.9735 11.2318C21.5493 10.8782 20.9187 10.9355 20.5651 11.3598L14.5995 18.5186L11.3738 15.2929C10.9833 14.9024 10.3501 14.9024 9.95958 15.2929C9.56906 15.6834 9.56906 16.3166 9.95958 16.7071L13.9596 20.7071C14.1582 20.9058 14.4313 21.0117 14.712 20.999C14.9927 20.9862 15.255 20.856 15.4349 20.6402L22.1016 12.6402Z" fill="#008700"/>
</svg>
