<svg width="32" height="32" viewBox="0 0 32 32" fill="none" xmlns="http://www.w3.org/2000/svg">
<path fill-rule="evenodd" clip-rule="evenodd" d="M14.2346 4.35035L2.38506 25.0047C1.62013 26.3381 2.58268 28 4.11985 28H27.8724C29.4113 28 30.3736 26.3347 29.6052 25.0014L17.7022 4.34697C16.9319 3.01031 15.0023 3.01219 14.2346 4.35035ZM16 10.6667C16.7364 10.6667 17.3333 11.2636 17.3333 12V18.6667C17.3333 19.403 16.7364 20 16 20C15.2636 20 14.6667 19.403 14.6667 18.6667V12C14.6667 11.2636 15.2636 10.6667 16 10.6667ZM17.3333 22.6667C17.3333 23.403 16.7364 24 16 24C15.2636 24 14.6667 23.403 14.6667 22.6667C14.6667 21.9303 15.2636 21.3333 16 21.3333C16.7364 21.3333 17.3333 21.9303 17.3333 22.6667Z" fill="#DC5A00"/>
</svg>
